<svg xmlns="http://www.w3.org/2000/svg" viewBox="0 0 1600 1000" role="img" aria-label="La tarda de Catalunya Radio placeholder">
  <rect width="1600" height="1000" fill="#111113"/>
  <rect x="110" y="118" width="1380" height="764" fill="#d7e0df"/>
  <rect x="178" y="188" width="1244" height="122" fill="#111113"/>
  <rect x="178" y="378" width="1244" height="10" fill="#111113"/>
  <rect x="178" y="612" width="1244" height="10" fill="#111113"/>
  <rect x="240" y="456" width="42" height="78" fill="#a93f2b"/>
  <rect x="328" y="424" width="42" height="142" fill="#536d49"/>
  <rect x="416" y="480" width="42" height="86" fill="#111113"/>
  <rect x="504" y="408" width="42" height="158" fill="#a93f2b"/>
  <rect x="592" y="448" width="42" height="118" fill="#536d49"/>
  <rect x="680" y="394" width="42" height="172" fill="#111113"/>
  <rect x="768" y="462" width="42" height="104" fill="#a93f2b"/>
  <rect x="856" y="426" width="42" height="140" fill="#536d49"/>
  <rect x="944" y="488" width="42" height="78" fill="#111113"/>
  <rect x="1032" y="408" width="42" height="158" fill="#a93f2b"/>
  <rect x="1120" y="448" width="42" height="118" fill="#536d49"/>
  <rect x="1208" y="390" width="42" height="176" fill="#111113"/>
  <rect x="178" y="696" width="420" height="68" fill="#f5f3ed"/>
  <rect x="650" y="696" width="772" height="68" fill="#5a6568"/>
</svg>
